# xmcd
#
# Track frame offsets:
#	300
#	19940
#	37010
#	55867
#	72280
#	86979
#	104480
#	120552
#	135467
#	153992
#	166660
#	180340
#	194780
#	216985
#	229984
#	257482
#
# Disc length: 3443 seconds
#
# Revision: 0
# Processed by: cddbd v1.5.1PL2 Copyright (c) Steve Scherf et al.
# Submitted via: audiograbber 1.83.01
#
DISCID=e40d6f10
DTITLE=Country Desperado's Vol 2 - sc-8403
DYEAR=1900
DGENRE=karaoke
TTITLE0=Help Me Make It Through The Night - Willie Nelson
TTITLE1=Leave Them Boys Alone - Hank Williams Jr.
TTITLE2=Let It Be Me - Willie Nelson
TTITLE3=Talk To Me - Mickey Gilley
TTITLE4=Old Habits - Hank Williams Jr.
TTITLE5=Queen Of My Heart - Hank Williams Jr.
TTITLE6=Living IN the Promiseland - Willie Nelson
TTITLE7=Don't The Girls All Get Prettier At Closing Time - Mickey Gilley
TTITLE8=Put Your Dreams Away - Mickey Gilley
TTITLE9=Texas Women - Hank Williams Jr.
TTITLE10=City Lights - Mickey Gilley
TTITLE11=Cajun Baby - Hank Williams Jr.
TTITLE12=Uncloudy Day - Willie Nelson
TTITLE13=Window Up Above - Mickey Gilley
TTITLE14=Nothing I Can Do About It Now - Willie Nelson
TTITLE15=Data Track
EXTD=
EXTT0=
EXTT1=
EXTT2=
EXTT3=
EXTT4=
EXTT5=
EXTT6=
EXTT7=
EXTT8=
EXTT9=
EXTT10=
EXTT11=
EXTT12=
EXTT13=
EXTT14=
EXTT15=
PLAYORDER=
